solid Visualization Toolkit generated SLA File
 facet normal -1 0 0
  outer loop
   vertex -0.62467700242996216 0.11781899631023407 -0.018365899100899696
   vertex -0.62467700242996216 1.6178200244903564 -0.66496902704238892
   vertex -0.62467700242996216 0.11781899631023407 -0.66496902704238892
  endloop
 endfacet
 facet normal -1 0 0
  outer loop
   vertex -0.62467700242996216 1.6178200244903564 0.62823700904846191
   vertex -0.62467700242996216 0.11781899631023407 -0.018365899100899696
   vertex -0.62467700242996216 0.11781899631023407 0.62823700904846191
  endloop
 endfacet
 facet normal -1 0 0
  outer loop
   vertex -0.62467700242996216 1.6178200244903564 -0.66496902704238892
   vertex -0.62467700242996216 0.11781899631023407 -0.018365899100899696
   vertex -0.62467700242996216 1.6178200244903564 0.62823700904846191
  endloop
 endfacet
 facet normal 0 0 1
  outer loop
   vertex 0.0034591199364513159 0.11781899631023407 0.62823700904846191
   vertex -0.62467700242996216 1.6178200244903564 0.62823700904846191
   vertex -0.62467700242996216 0.11781899631023407 0.62823700904846191
  endloop
 endfacet
 facet normal 0 0 1
  outer loop
   vertex 0.63159501552581787 1.6178200244903564 0.62823700904846191
   vertex 0.0034591199364513159 0.11781899631023407 0.62823700904846191
   vertex 0.63159501552581787 0.11781899631023407 0.62823700904846191
  endloop
 endfacet
 facet normal 0 -0 1
  outer loop
   vertex -0.62467700242996216 1.6178200244903564 0.62823700904846191
   vertex 0.0034591199364513159 0.11781899631023407 0.62823700904846191
   vertex 0.63159501552581787 1.6178200244903564 0.62823700904846191
  endloop
 endfacet
 facet normal 1 0 0
  outer loop
   vertex 0.63159501552581787 0.11781899631023407 -0.018365899100899696
   vertex 0.63159501552581787 1.6178200244903564 0.62823700904846191
   vertex 0.63159501552581787 0.11781899631023407 0.62823700904846191
  endloop
 endfacet
 facet normal 1 0 0
  outer loop
   vertex 0.63159501552581787 1.6178200244903564 -0.66496902704238892
   vertex 0.63159501552581787 0.11781899631023407 -0.018365899100899696
   vertex 0.63159501552581787 0.11781899631023407 -0.66496902704238892
  endloop
 endfacet
 facet normal 1 -0 0
  outer loop
   vertex 0.63159501552581787 1.6178200244903564 0.62823700904846191
   vertex 0.63159501552581787 0.11781899631023407 -0.018365899100899696
   vertex 0.63159501552581787 1.6178200244903564 -0.66496902704238892
  endloop
 endfacet
 facet normal 0 -0 -1
  outer loop
   vertex 0.0034591199364513159 0.11781899631023407 -0.66496902704238892
   vertex 0.63159501552581787 1.6178200244903564 -0.66496902704238892
   vertex 0.63159501552581787 0.11781899631023407 -0.66496902704238892
  endloop
 endfacet
 facet normal 0 0 -1
  outer loop
   vertex -0.62467700242996216 1.6178200244903564 -0.66496902704238892
   vertex 0.0034591199364513159 0.11781899631023407 -0.66496902704238892
   vertex -0.62467700242996216 0.11781899631023407 -0.66496902704238892
  endloop
 endfacet
 facet normal 0 0 -1
  outer loop
   vertex 0.63159501552581787 1.6178200244903564 -0.66496902704238892
   vertex 0.0034591199364513159 0.11781899631023407 -0.66496902704238892
   vertex -0.62467700242996216 1.6178200244903564 -0.66496902704238892
  endloop
 endfacet
 facet normal 0 -1 0
  outer loop
   vertex 0.0034591199364513159 0.11781899631023407 -0.66496902704238892
   vertex -0.62467700242996216 0.11781899631023407 -0.018365899100899696
   vertex -0.62467700242996216 0.11781899631023407 -0.66496902704238892
  endloop
 endfacet
 facet normal 0 -1 0
  outer loop
   vertex 0.0034591199364513159 0.11781899631023407 -0.66496902704238892
   vertex 0.63159501552581787 0.11781899631023407 -0.66496902704238892
   vertex 0.63159501552581787 0.11781899631023407 -0.018365899100899696
  endloop
 endfacet
 facet normal 0 -1 0
  outer loop
   vertex 0.0034591199364513159 0.11781899631023407 0.62823700904846191
   vertex -0.62467700242996216 0.11781899631023407 -0.018365899100899696
   vertex 0.0034591199364513159 0.11781899631023407 -0.66496902704238892
  endloop
 endfacet
 facet normal -0 -1 0
  outer loop
   vertex 0.0034591199364513159 0.11781899631023407 -0.66496902704238892
   vertex 0.63159501552581787 0.11781899631023407 -0.018365899100899696
   vertex 0.0034591199364513159 0.11781899631023407 0.62823700904846191
  endloop
 endfacet
 facet normal 0 -1 0
  outer loop
   vertex 0.0034591199364513159 0.11781899631023407 0.62823700904846191
   vertex 0.63159501552581787 0.11781899631023407 -0.018365899100899696
   vertex 0.63159501552581787 0.11781899631023407 0.62823700904846191
  endloop
 endfacet
 facet normal 0 -1 0
  outer loop
   vertex -0.62467700242996216 0.11781899631023407 0.62823700904846191
   vertex -0.62467700242996216 0.11781899631023407 -0.018365899100899696
   vertex 0.0034591199364513159 0.11781899631023407 0.62823700904846191
  endloop
 endfacet
endsolid
