solid Visualization Toolkit generated SLA File
 facet normal -1 0 0
  outer loop
   vertex 0 2.3141899108886719 0
   vertex 0 1.7000000476837158 0
   vertex 0 1.7000000476837158 0.30000001192092896
  endloop
 endfacet
 facet normal -1 0 0
  outer loop
   vertex 0 2.3141899108886719 0
   vertex 0 1.7000000476837158 0.30000001192092896
   vertex 0 2.3141899108886719 0.30000001192092896
  endloop
 endfacet
 facet normal -1 0 0
  outer loop
   vertex 0 2.928380012512207 0
   vertex 0 2.3141899108886719 0
   vertex 0 2.3141899108886719 0.30000001192092896
  endloop
 endfacet
 facet normal -1 0 0
  outer loop
   vertex 0 2.928380012512207 0
   vertex 0 2.3141899108886719 0.30000001192092896
   vertex 0 2.928380012512207 0.30000001192092896
  endloop
 endfacet
 facet normal 0 0 1
  outer loop
   vertex 2 2.3141899108886719 0.30000001192092896
   vertex 0.66666698455810547 2.928380012512207 0.30000001192092896
   vertex 0 2.3141899108886719 0.30000001192092896
  endloop
 endfacet
 facet normal 0 0 1
  outer loop
   vertex 0 2.3141899108886719 0.30000001192092896
   vertex 0.66666698455810547 2.928380012512207 0.30000001192092896
   vertex 0 2.928380012512207 0.30000001192092896
  endloop
 endfacet
 facet normal 0 0 1
  outer loop
   vertex 0 2.3141899108886719 0.30000001192092896
   vertex 0 1.7000000476837158 0.30000001192092896
   vertex 2 1.7000000476837158 0.30000001192092896
  endloop
 endfacet
 facet normal 0 -0 1
  outer loop
   vertex 0 2.3141899108886719 0.30000001192092896
   vertex 2 1.7000000476837158 0.30000001192092896
   vertex 2 2.3141899108886719 0.30000001192092896
  endloop
 endfacet
 facet normal 0 0 1
  outer loop
   vertex 0.66666698455810547 2.928380012512207 0.30000001192092896
   vertex 2 2.3141899108886719 0.30000001192092896
   vertex 1.3333300352096558 2.928380012512207 0.30000001192092896
  endloop
 endfacet
 facet normal 0 0 1
  outer loop
   vertex 2 2.3141899108886719 0.30000001192092896
   vertex 2 2.928380012512207 0.30000001192092896
   vertex 1.3333300352096558 2.928380012512207 0.30000001192092896
  endloop
 endfacet
 facet normal 1 -0 0
  outer loop
   vertex 2 2.3141899108886719 0.30000001192092896
   vertex 2 1.7000000476837158 0.30000001192092896
   vertex 2 1.7000000476837158 0
  endloop
 endfacet
 facet normal 1 0 0
  outer loop
   vertex 2 2.3141899108886719 0.30000001192092896
   vertex 2 1.7000000476837158 0
   vertex 2 2.3141899108886719 0
  endloop
 endfacet
 facet normal 1 -0 0
  outer loop
   vertex 2 2.928380012512207 0.30000001192092896
   vertex 2 2.3141899108886719 0.30000001192092896
   vertex 2 2.3141899108886719 0
  endloop
 endfacet
 facet normal 1 0 0
  outer loop
   vertex 2 2.928380012512207 0.30000001192092896
   vertex 2 2.3141899108886719 0
   vertex 2 2.928380012512207 0
  endloop
 endfacet
 facet normal -0 -0 -1
  outer loop
   vertex 0.66666698455810547 2.928380012512207 0
   vertex 1.3333300352096558 2.928380012512207 0
   vertex 2 2.3141899108886719 0
  endloop
 endfacet
 facet normal 0 0 -1
  outer loop
   vertex 2 2.3141899108886719 0
   vertex 1.3333300352096558 2.928380012512207 0
   vertex 2 2.928380012512207 0
  endloop
 endfacet
 facet normal 0 0 -1
  outer loop
   vertex 2 2.3141899108886719 0
   vertex 2 1.7000000476837158 0
   vertex 0 1.7000000476837158 0
  endloop
 endfacet
 facet normal 0 0 -1
  outer loop
   vertex 2 2.3141899108886719 0
   vertex 0 1.7000000476837158 0
   vertex 0 2.3141899108886719 0
  endloop
 endfacet
 facet normal 0 0 -1
  outer loop
   vertex 2 2.3141899108886719 0
   vertex 0 2.3141899108886719 0
   vertex 0.66666698455810547 2.928380012512207 0
  endloop
 endfacet
 facet normal 0 0 -1
  outer loop
   vertex 0 2.3141899108886719 0
   vertex 0 2.928380012512207 0
   vertex 0.66666698455810547 2.928380012512207 0
  endloop
 endfacet
 facet normal 0 1 0
  outer loop
   vertex 0.66666698455810547 2.928380012512207 0
   vertex 0 2.928380012512207 0
   vertex 0 2.928380012512207 0.30000001192092896
  endloop
 endfacet
 facet normal -0 1 0
  outer loop
   vertex 0.66666698455810547 2.928380012512207 0
   vertex 0 2.928380012512207 0.30000001192092896
   vertex 0.66666698455810547 2.928380012512207 0.30000001192092896
  endloop
 endfacet
 facet normal 0 1 0
  outer loop
   vertex 2 2.928380012512207 0
   vertex 1.3333300352096558 2.928380012512207 0
   vertex 1.3333300352096558 2.928380012512207 0.30000001192092896
  endloop
 endfacet
 facet normal -0 1 0
  outer loop
   vertex 2 2.928380012512207 0
   vertex 1.3333300352096558 2.928380012512207 0.30000001192092896
   vertex 2 2.928380012512207 0.30000001192092896
  endloop
 endfacet
 facet normal 0 1 0
  outer loop
   vertex 1.3333300352096558 2.928380012512207 0
   vertex 0.66666698455810547 2.928380012512207 0
   vertex 0.66666698455810547 2.928380012512207 0.30000001192092896
  endloop
 endfacet
 facet normal -0 1 0
  outer loop
   vertex 1.3333300352096558 2.928380012512207 0
   vertex 0.66666698455810547 2.928380012512207 0.30000001192092896
   vertex 1.3333300352096558 2.928380012512207 0.30000001192092896
  endloop
 endfacet
 facet normal 0 1 0
  outer loop
   vertex 1.2999999523162842 0 0
   vertex 0.69999998807907104 0 0
   vertex 0.69999998807907104 0 0.30000001192092896
  endloop
 endfacet
 facet normal -0 1 0
  outer loop
   vertex 1.2999999523162842 0 0
   vertex 0.69999998807907104 0 0.30000001192092896
   vertex 1.2999999523162842 0 0.30000001192092896
  endloop
 endfacet
 facet normal -0 0 1
  outer loop
   vertex 2 1.7000000476837158 0
   vertex 0 1.7000000476837158 0
   vertex 0.69999998807907104 0 0
  endloop
 endfacet
 facet normal 0 0 1
  outer loop
   vertex 2 1.7000000476837158 0
   vertex 0.69999998807907104 0 0
   vertex 1.2999999523162842 0 0
  endloop
 endfacet
 facet normal 0 -0 1
  outer loop
   vertex 0.69999998807907104 0 0.30000001192092896
   vertex 1.2999999523162842 0 0.30000001192092896
   vertex 2 1.7000000476837158 0.30000001192092896
  endloop
 endfacet
 facet normal 0 0 1
  outer loop
   vertex 0.69999998807907104 0 0.30000001192092896
   vertex 2 1.7000000476837158 0.30000001192092896
   vertex 0 1.7000000476837158 0.30000001192092896
  endloop
 endfacet
 facet normal -0.924678093103247 0.38074981829929072 0
  outer loop
   vertex 1.6499999761581421 0.85000002384185791 5.551119755337213e-17
   vertex 1.2999999523162842 0 5.551119755337213e-17
   vertex 1.2999999523162842 0 0.30000001192092896
  endloop
 endfacet
 facet normal -0.924678093103247 0.38074981829929072 0
  outer loop
   vertex 1.6499999761581421 0.85000002384185791 5.551119755337213e-17
   vertex 1.2999999523162842 0 0.30000001192092896
   vertex 1.6499999761581421 0.85000002384185791 0.30000001192092896
  endloop
 endfacet
 facet normal -0.924678093103247 0.38074981829929072 0
  outer loop
   vertex 2 1.7000000476837158 5.551119755337213e-17
   vertex 1.6499999761581421 0.85000002384185791 5.551119755337213e-17
   vertex 1.6499999761581421 0.85000002384185791 0.30000001192092896
  endloop
 endfacet
 facet normal -0.924678093103247 0.38074981829929072 0
  outer loop
   vertex 2 1.7000000476837158 5.551119755337213e-17
   vertex 1.6499999761581421 0.85000002384185791 0.30000001192092896
   vertex 2 1.7000000476837158 0.30000001192092896
  endloop
 endfacet
 facet normal 0.92467810451761845 0.3807497905786742 -0
  outer loop
   vertex 0.34999999403953552 0.85000002384185791 0.30000001192092896
   vertex 0.34999999403953552 0.85000002384185791 0
   vertex 0 1.7000000476837158 0
  endloop
 endfacet
 facet normal 0.92467810451761845 0.3807497905786742 -0
  outer loop
   vertex 0.34999999403953552 0.85000002384185791 0.30000001192092896
   vertex 0 1.7000000476837158 0
   vertex 0 1.7000000476837158 0.30000001192092896
  endloop
 endfacet
 facet normal 0.92467810451761845 0.38074979057867436 -0
  outer loop
   vertex 0.69999998807907104 4.440889980918258e-16 0.30000001192092896
   vertex 0.69999998807907104 4.440889980918258e-16 0
   vertex 0.34999999403953552 0.85000002384185791 0
  endloop
 endfacet
 facet normal 0.92467810451761845 0.38074979057867436 -0
  outer loop
   vertex 0.69999998807907104 4.440889980918258e-16 0.30000001192092896
   vertex 0.34999999403953552 0.85000002384185791 0
   vertex 0.34999999403953552 0.85000002384185791 0.30000001192092896
  endloop
 endfacet
endsolid
