solid Visualization Toolkit generated SLA File
 facet normal 0 -1 0
  outer loop
   vertex 0 0.40000000596046448 0
   vertex 0.5 0.40000000596046448 0
   vertex 0.5 0.40000000596046448 0.125
  endloop
 endfacet
 facet normal -0 -1 0
  outer loop
   vertex 0 0.40000000596046448 0
   vertex 0.5 0.40000000596046448 0.125
   vertex 0 0.40000000596046448 0.125
  endloop
 endfacet
 facet normal 1 0 -0
  outer loop
   vertex 0.5 0.40000000596046448 0
   vertex 0.5 0.67945700883865356 0
   vertex 0.5 0.67945700883865356 0.125
  endloop
 endfacet
 facet normal 1 0 0
  outer loop
   vertex 0.5 0.40000000596046448 0
   vertex 0.5 0.67945700883865356 0.125
   vertex 0.5 0.40000000596046448 0.125
  endloop
 endfacet
 facet normal 0 1 0
  outer loop
   vertex 0.5 0.67945700883865356 0
   vertex 0 0.67945700883865356 0
   vertex 0 0.67945700883865356 0.125
  endloop
 endfacet
 facet normal -0 1 0
  outer loop
   vertex 0.5 0.67945700883865356 0
   vertex 0 0.67945700883865356 0.125
   vertex 0.5 0.67945700883865356 0.125
  endloop
 endfacet
 facet normal -1 0 0
  outer loop
   vertex 0 0.67945700883865356 0
   vertex 0 0.40000000596046448 0
   vertex 0 0.40000000596046448 0.125
  endloop
 endfacet
 facet normal -1 0 0
  outer loop
   vertex 0 0.67945700883865356 0
   vertex 0 0.40000000596046448 0.125
   vertex 0 0.67945700883865356 0.125
  endloop
 endfacet
 facet normal 0 0 -1
  outer loop
   vertex 0.5 0.40000000596046448 0
   vertex 0 0.40000000596046448 0
   vertex 0 0.67945700883865356 0
  endloop
 endfacet
 facet normal -0 -0 -1
  outer loop
   vertex 0 0.67945700883865356 0
   vertex 0.5 0.67945700883865356 0
   vertex 0.5 0.40000000596046448 0
  endloop
 endfacet
 facet normal 0 0 1
  outer loop
   vertex 0.5 0.40000000596046448 0.125
   vertex 0 0.67945700883865356 0.125
   vertex 0 0.40000000596046448 0.125
  endloop
 endfacet
 facet normal 0 -0 1
  outer loop
   vertex 0 0.67945700883865356 0.125
   vertex 0.5 0.40000000596046448 0.125
   vertex 0.5 0.67945700883865356 0.125
  endloop
 endfacet
endsolid
